<svg width="61" height="61" viewBox="0 0 61 61" fill="none" xmlns="http://www.w3.org/2000/svg">
<g clip-path="url(#clip0)">
<path d="M61 25.5806H58.7892L55.4941 27.3144C55.1232 27.1098 54.7374 26.9363 54.3214 26.8321L50.1765 25.7949V25.3236C52.0102 24.0438 53.129 21.9296 53.129 19.6774V17.9576C53.129 14.1355 50.1342 10.9369 46.4533 10.8255C46.2664 10.8207 46.0824 10.8274 45.8975 10.8365L46.9722 8.32063L41.7622 3.11207L38.6909 5.11104C37.524 4.45384 36.2899 3.94221 35.0081 3.58335L34.2496 0H26.7514L25.9928 3.58431C24.7111 3.94317 23.476 4.4548 22.31 5.112L19.2388 3.11303L14.0331 8.31871L15.0895 10.8365C15.0492 10.8346 15.0108 10.8274 14.9704 10.8264C13.0863 10.7717 11.3116 11.4591 9.96362 12.7677C8.61368 14.0754 7.87097 15.8303 7.87097 17.7097V19.6774C7.87097 21.9296 8.98887 24.0429 10.8226 25.3227V25.7949L8.11886 26.4708L3.21824 23.6129H0V43.9999L9.67922 47.2258H11.5643L11.7997 46.4014L14.7667 48.1823C14.8152 49.7955 16.109 51.0936 17.7207 51.1502C17.7774 52.7553 19.0673 54.0452 20.6723 54.1019C20.729 55.7069 22.0189 56.9968 23.624 57.0535C23.6826 58.696 25.0277 60.0161 26.6837 60.0161C27.2986 60.0161 27.9015 59.8244 28.4083 59.4829L29.2798 60.2525C29.826 60.7334 30.5293 61 31.2595 61H31.4416C33.0788 61 34.411 59.6765 34.4316 58.0445C36.0511 58.0239 37.3626 56.7124 37.3833 55.0929C39.0037 55.0723 40.3161 53.7588 40.3349 52.1384C41.9702 52.1 43.2903 50.764 43.2903 49.1196C43.2903 49.0206 43.2855 48.9231 43.2754 48.8246L61 39.963V25.5806ZM51.1613 17.9576V19.6774C51.1613 21.4237 50.2178 23.0552 48.6987 23.9348L48.2068 24.2192L48.2106 27.3327L53.1262 28.5606L42.3065 34.2553V31.6049C42.3065 30.2824 41.7722 29.0713 40.8974 28.1763L44.2742 27.3327V24.2168L43.7832 23.9329C42.2651 23.0552 41.3226 21.4237 41.3226 19.6774V17.7097C41.3226 16.3679 41.853 15.1131 42.8171 14.1787C43.7803 13.2448 45.0582 12.7413 46.3942 12.7932C49.0225 12.872 51.1613 15.189 51.1613 17.9576ZM31.9835 33.4819L27.5297 32.0584C25.4999 31.408 23.303 31.3109 21.2253 31.7712L20.6613 31.8961V31.6049C20.6613 30.2483 21.5813 29.0703 22.8966 28.7408L28.5323 27.3327V24.2168L28.0413 23.9329C26.5232 23.0552 25.5806 21.4237 25.5806 19.6774V17.7097C25.5806 16.3679 26.111 15.1131 27.0752 14.1787C28.0384 13.2448 29.3244 12.7413 30.6523 12.7932C33.2806 12.872 35.4194 15.189 35.4194 17.9576V19.6774C35.4194 21.4237 34.4758 23.0552 32.9568 23.9348L32.4649 24.2192L32.4687 27.3327L38.1034 28.7408C39.4187 29.0703 40.3387 30.2483 40.3387 31.6049V35.2916L40.0956 35.4194H39.4927L33.4439 33.6909C32.9674 33.5559 32.4764 33.5006 31.9835 33.4819ZM20.8818 14.7254C22.7294 11.1454 26.4483 8.85484 30.5 8.85484C34.5133 8.85484 38.2163 11.1147 40.0779 14.6461C39.6095 15.5853 39.3548 16.6254 39.3548 17.7097V19.6774C39.3548 21.9296 40.4727 24.0429 42.3065 25.3227V25.7949L38.371 26.7802L34.4345 25.7949V25.3236C36.2682 24.0438 37.3871 21.9296 37.3871 19.6774V17.9576C37.3871 14.1355 34.3922 10.9369 30.7114 10.8255C28.8282 10.7702 27.0526 11.4582 25.7046 12.7668C24.3556 14.0754 23.6129 15.8303 23.6129 17.7097V19.6774C23.6129 21.9296 24.7308 24.0429 26.5645 25.3227V25.7949L22.629 26.7802L18.6926 25.7949V25.3236C20.5263 24.0438 21.6452 21.9296 21.6452 19.6774V17.9576C21.6452 16.7998 21.3665 15.7006 20.8818 14.7254ZM16.3569 8.77509L19.5002 5.6318L22.2668 7.43236L22.7962 7.1076C24.1226 6.29476 25.5561 5.69953 27.0565 5.34067L27.6618 5.19559L28.3463 1.96774H32.6546L33.3373 5.19463L33.9426 5.33923C35.4429 5.69857 36.8764 6.2938 38.2028 7.10664L38.7322 7.4314L41.4989 5.63084L44.6383 8.77125L43.5224 11.3842C42.7628 11.7109 42.0586 12.1706 41.4456 12.7649C41.4052 12.8043 41.3706 12.8465 41.3312 12.8869C39.0133 9.20217 34.9154 6.8871 30.5 6.8871C26.0529 6.8871 21.9435 9.22379 19.6313 12.946C19.0125 12.2984 18.2766 11.7738 17.4608 11.4072L16.3569 8.77509ZM12.7903 27.3327V24.2168L12.2993 23.9329C10.7813 23.0552 9.83871 21.4237 9.83871 19.6774V17.7097C9.83871 16.3679 10.3691 15.1131 11.3333 14.1787C12.2965 13.2448 13.5772 12.7413 14.9104 12.7932C17.5387 12.872 19.6774 15.189 19.6774 17.9576V19.6774C19.6774 21.4237 18.7339 23.0552 17.2149 23.9348L16.7229 24.2192L16.7268 27.3327L20.1026 28.1763C19.2278 29.0713 18.6935 30.2824 18.6935 31.6049V32.3337L15.6247 33.0159L15.7045 32.7373L15.7419 30.9189L10.5531 27.8919L12.7903 27.3327ZM1.96774 25.5806H2.68499L9.76088 29.7078L6.19051 43.9888L1.96774 42.5808V25.5806ZM9.9982 45.2581L8.06169 44.6129L11.5302 30.7402L13.7742 32.0488V32.3299L10.0808 45.2581H9.9982ZM16.7258 48.0905C16.7258 47.8004 16.843 47.516 17.0486 47.3104L18.7781 45.5809C18.9837 45.3753 19.2681 45.2581 19.5583 45.2581C20.1665 45.2581 20.6613 45.7529 20.6613 46.3611C20.6613 46.6512 20.5441 46.9356 20.3385 47.1413L18.609 48.8707C18.4034 49.0763 18.119 49.1936 17.8288 49.1936C17.2206 49.1936 16.7258 48.6987 16.7258 48.0905ZM19.6774 51.0421C19.6774 50.752 19.7946 50.4676 20.0003 50.262L21.7297 48.5325C21.9353 48.3269 22.2197 48.2097 22.5099 48.2097C23.1181 48.2097 23.6129 48.7045 23.6129 49.3127C23.6129 49.6029 23.4957 49.8873 23.2901 50.0929L21.5606 51.8223C21.355 52.0279 21.0706 52.1452 20.7804 52.1452C20.1722 52.1452 19.6774 51.6503 19.6774 51.0421ZM22.629 53.9938C22.629 53.7036 22.7463 53.4192 22.9519 53.2136L24.6813 51.4841C24.8869 51.2785 25.1713 51.1613 25.4615 51.1613C26.0697 51.1613 26.5645 51.6561 26.5645 52.2643C26.5645 52.5545 26.4473 52.8389 26.2417 53.0445L24.5122 54.7739C24.3066 54.9796 24.0222 55.0968 23.732 55.0968C23.1238 55.0968 22.629 54.602 22.629 53.9938ZM26.6837 58.0484C26.0755 58.0484 25.5806 57.5536 25.5806 56.9454C25.5806 56.6552 25.6979 56.3708 25.9035 56.1652L27.6329 54.4357C27.8386 54.2301 28.123 54.1129 28.4131 54.1129C29.0213 54.1129 29.5161 54.6077 29.5161 55.2159C29.5161 55.5061 29.3989 55.7905 29.1933 55.9961L27.4638 57.7256C27.2582 57.9312 26.9738 58.0484 26.6837 58.0484ZM31.4416 59.0323H31.2595C31.0088 59.0323 30.7685 58.941 30.5817 58.7752L29.8457 58.1262L30.5846 57.3873C30.8483 57.1236 31.0529 56.8099 31.2043 56.4731L32.0988 57.2178C32.3327 57.4128 32.4677 57.7001 32.4677 58.0061C32.4677 58.572 32.0075 59.0323 31.4416 59.0323ZM40.2647 50.1774H40.0947C39.8477 50.1774 39.6066 50.09 39.4178 49.9315L34.0824 45.4853L32.8218 46.9976L38.003 51.3145C38.236 51.5096 38.371 51.7969 38.371 52.1029C38.371 52.6688 37.9107 53.129 37.3448 53.129H37.1301C36.8913 53.129 36.6578 53.0445 36.4738 52.8908L31.1298 48.4379L29.8692 49.9502L35.0504 54.2676C35.2844 54.4612 35.4194 54.7485 35.4194 55.0545C35.4194 55.6204 34.9591 56.0806 34.3932 56.0806C34.0156 56.0806 33.6476 55.9466 33.3579 55.7059L31.162 53.8756C30.6782 52.8869 29.6843 52.1975 28.5202 52.1562C28.4636 50.5512 27.1737 49.2613 25.5686 49.2046C25.5119 47.5996 24.2221 46.3097 22.617 46.253C22.5594 44.6105 21.2142 43.2903 19.5583 43.2903C18.7498 43.2903 17.9585 43.618 17.3868 44.1896L15.6574 45.9191C15.5541 46.0224 15.4686 46.1396 15.3816 46.2559L12.3594 44.4423L15.0088 35.1695L21.6509 33.6928C23.3934 33.3032 25.2304 33.3877 26.9296 33.9315L28.379 34.3951L23.4654 36.8519C22.3427 37.4145 21.6452 38.5439 21.6452 39.7997V39.9943C21.6452 41.8116 23.1238 43.2903 24.9412 43.2903C25.5384 43.2903 26.1259 43.1279 26.6366 42.82L30.3002 40.6231C31.0361 40.1821 32.0238 40.2787 32.6594 40.8503L40.9724 48.3317C41.1948 48.5335 41.3226 48.8198 41.3226 49.1196C41.3226 49.7033 40.8484 50.1774 40.2647 50.1774ZM59.0323 38.7466L42.4568 47.0351C42.403 46.9779 42.3468 46.9236 42.2877 46.8708L33.9762 39.3894C33.2479 38.7322 32.3063 38.371 31.3253 38.371C30.6081 38.371 29.9038 38.566 29.287 38.9359L25.622 41.1338C25.4163 41.2577 25.1814 41.3226 24.9412 41.3226C24.2081 41.3226 23.6129 40.7274 23.6129 39.9943V39.7997C23.6129 39.2929 23.8944 38.8384 24.347 38.6121L29.8351 35.8681C30.7743 35.3977 31.8893 35.2925 32.9016 35.5837L39.0844 37.3496L40.5818 37.3871L59.0323 27.6762V38.7466Z" fill="#7DEBDF"/>
</g>
<defs>
<clipPath id="clip0">
<rect width="61" height="61" fill="white"/>
</clipPath>
</defs>
</svg>
