<svg width="62" height="62" viewBox="0 0 62 62" fill="none" xmlns="http://www.w3.org/2000/svg">
<g clip-path="url(#clip0)">
<path d="M22.7495 20.2601V18.4404H7.03711V49.3794H13.7711V47.5597H8.8573V20.2601H22.7495Z" fill="#4AB5FF"/>
<path d="M4.00403 18.1367C4.00403 16.6315 5.22821 15.4069 6.73384 15.4069H28.3131V13.5872H6.73384C4.22493 13.5872 2.18384 15.6278 2.18384 18.1367V36.9431H4.00403V18.1367Z" fill="#4AB5FF"/>
<path d="M62 12.4859V5.63985C62 3.13094 59.9589 1.08984 57.45 1.08984H53.0301V2.91003H57.45C58.9556 2.91003 60.1798 4.13422 60.1798 5.63985V8.36966H41.3739V5.63985C41.3739 4.13422 42.5985 2.91003 44.1037 2.91003H51.2099V1.08984H44.1037C41.5948 1.08984 39.5537 3.13094 39.5537 5.63985V13.5871H30.1334V15.4068H39.5537V18.4403H24.5693V20.26H39.5537V39.6123C39.5537 42.1212 41.5948 44.1623 44.1037 44.1623H53.1427V47.5596H15.5908V49.3793H54.9628V44.1623H57.45C57.6349 44.1623 57.8171 44.15 57.9959 44.1283V52.4128H38.7046V53.3229C38.7046 53.7576 38.3508 54.1114 37.9161 54.1114H24.0839C23.6492 54.1114 23.2954 53.7576 23.2954 53.3229V52.4128H10.0967V54.2325H21.6394C22.0093 55.224 22.9657 55.9311 24.0839 55.9311H37.9161C39.0343 55.9311 39.9907 55.224 40.3606 54.2325H60.1798V56.4775C60.1798 57.9826 58.9556 59.2073 57.45 59.2073H4.55C3.04437 59.2073 1.82019 57.9826 1.82019 56.4775V54.2325H8.27647V52.4128H4.00414V38.7632H2.18394V52.4128H0V56.4775C0 58.9864 2.04109 61.027 4.55 61.027H57.45C59.9589 61.027 62 58.9864 62 56.4775V52.4128H59.8161V43.4973C61.1249 42.6974 62 41.2551 62 39.6123V14.3061H60.1798V31.4224H41.3739V10.1898H60.1798V12.4859H62ZM60.1798 33.2426V39.6123C60.1798 41.1175 58.9556 42.3421 57.45 42.3421H44.1037C42.5985 42.3421 41.3739 41.1175 41.3739 39.6123V33.2426H60.1798Z" fill="#4AB5FF"/>
<path d="M53.507 35.0623H48.0469V40.5224H53.507V35.0623ZM51.6868 38.7022H49.8671V36.8824H51.6868V38.7022Z" fill="#4AB5FF"/>
<path d="M32.3954 32.0898C32.3954 27.5739 28.7215 23.8999 24.2055 23.8999C19.6896 23.8999 16.0156 27.5739 16.0156 32.0898C16.0156 36.6058 19.6896 40.2797 24.2055 40.2797C28.7215 40.2797 32.3954 36.6058 32.3954 32.0898ZM24.2055 38.4595C20.6929 38.4595 17.8358 35.602 17.8358 32.0898C17.8358 28.5776 20.6929 25.7201 24.2055 25.7201C27.7177 25.7201 30.5753 28.5776 30.5753 32.0898C30.5753 35.602 27.7177 38.4595 24.2055 38.4595Z" fill="#4AB5FF"/>
<path d="M43.1936 20.8059C43.1936 24.9874 46.5956 28.3894 50.7771 28.3894C54.9581 28.3894 58.3601 24.9874 58.3601 20.8059C58.3601 16.6249 54.9581 13.2229 50.7771 13.2229C46.5956 13.2229 43.1936 16.6249 43.1936 20.8059ZM56.5399 20.8059C56.5399 23.9837 53.9549 26.5692 50.7771 26.5692C47.5993 26.5692 45.0138 23.9837 45.0138 20.8059C45.0138 17.6282 47.5993 15.0431 50.7771 15.0431C53.9549 15.0431 56.5399 17.6282 56.5399 20.8059Z" fill="#4AB5FF"/>
<path d="M44.7104 4.72974H46.5302V6.54993H44.7104V4.72974Z" fill="#4AB5FF"/>
<path d="M55.0234 4.72974H56.8436V6.54993H55.0234V4.72974Z" fill="#4AB5FF"/>
<path d="M48.3506 4.72974H53.2038V6.54993H48.3506V4.72974Z" fill="#4AB5FF"/>
<path d="M23.2954 42.0994H25.1156V43.9196H23.2954V42.0994Z" fill="#4AB5FF"/>
<path d="M26.9353 42.0994H28.7555V43.9196H26.9353V42.0994Z" fill="#4AB5FF"/>
<path d="M19.6555 42.0994H21.4757V43.9196H19.6555V42.0994Z" fill="#4AB5FF"/>
<path d="M4.55005 55.8101H9.40326V57.6298H4.55005V55.8101Z" fill="#4AB5FF"/>
<path d="M11.2229 55.8101H13.0431V57.6298H11.2229V55.8101Z" fill="#4AB5FF"/>
<path d="M22.8707 33.4726L21.0879 31.6893L19.8008 32.9759L22.8707 36.0458L28.6104 30.3066L27.3233 29.02L22.8707 33.4726Z" fill="#4AB5FF"/>
<path d="M47.9016 20.1625L46.615 21.4496L49.6849 24.5195L54.9388 19.2656L53.6521 17.9785L49.6849 21.9458L47.9016 20.1625Z" fill="#4AB5FF"/>
</g>
<defs>
<clipPath id="clip0">
<rect width="62" height="62" fill="white"/>
</clipPath>
</defs>
</svg>
