<svg width="62" height="62" viewBox="0 0 62 62" fill="none" xmlns="http://www.w3.org/2000/svg">
<g clip-path="url(#clip0)">
<path d="M50.375 54.25H6.45833C2.8985 54.25 0 51.3515 0 47.7917V14.2083C0 10.6485 2.8985 7.75 6.45833 7.75H50.375C53.9348 7.75 56.8333 10.6485 56.8333 14.2083V24.5417C56.8333 25.2547 56.2547 25.8333 55.5417 25.8333C54.8287 25.8333 54.25 25.2547 54.25 24.5417V14.2083C54.25 12.0719 52.5114 10.3333 50.375 10.3333H6.45833C4.32192 10.3333 2.58333 12.0719 2.58333 14.2083V47.7917C2.58333 49.9281 4.32192 51.6667 6.45833 51.6667H50.375C52.5114 51.6667 54.25 49.9281 54.25 47.7917V40.0417C54.25 39.3287 54.8287 38.75 55.5417 38.75C56.2547 38.75 56.8333 39.3287 56.8333 40.0417V47.7917C56.8333 51.3515 53.9348 54.25 50.375 54.25Z" fill="#E78E76"/>
<path d="M58.1249 41.3333H42.6249C37.6391 41.3333 33.5833 37.2775 33.5833 32.2917C33.5833 27.3058 37.6391 23.25 42.6249 23.25H58.1249C60.2613 23.25 61.9999 24.9886 61.9999 27.125V37.4583C61.9999 39.5948 60.2613 41.3333 58.1249 41.3333ZM42.6249 25.8333C39.0651 25.8333 36.1666 28.7318 36.1666 32.2917C36.1666 35.8515 39.0651 38.75 42.6249 38.75H58.1249C58.8379 38.75 59.4166 38.1713 59.4166 37.4583V27.125C59.4166 26.412 58.8379 25.8333 58.1249 25.8333H42.6249Z" fill="#E78E76"/>
<path d="M42.625 36.1665C40.4886 36.1665 38.75 34.4279 38.75 32.2915C38.75 30.1551 40.4886 28.4165 42.625 28.4165C44.7614 28.4165 46.5 30.1551 46.5 32.2915C46.5 34.4279 44.7614 36.1665 42.625 36.1665ZM42.625 30.9998C41.912 30.9998 41.3333 31.5785 41.3333 32.2915C41.3333 33.0045 41.912 33.5832 42.625 33.5832C43.338 33.5832 43.9167 33.0045 43.9167 32.2915C43.9167 31.5785 43.338 30.9998 42.625 30.9998Z" fill="#E78E76"/>
</g>
<defs>
<clipPath id="clip0">
<rect width="62" height="62" fill="white"/>
</clipPath>
</defs>
</svg>
