<svg width="63" height="62" viewBox="0 0 63 62" fill="none" xmlns="http://www.w3.org/2000/svg">
<g clip-path="url(#clip0)">
<path d="M56.6347 40.4141V5.0295C56.6347 3.03169 54.9921 1.40649 52.9732 1.40649H20.2498C19.5702 1.40649 19.0194 1.94863 19.0194 2.61743C19.0194 3.28623 19.5702 3.82837 20.2498 3.82837H52.973C53.6238 3.82837 54.1736 4.37838 54.1736 5.0295V12.9098H2.46094V5.0295C2.46094 4.3785 3.01071 3.82837 3.66151 3.82837H9.20021C9.8798 3.82837 10.4307 3.28623 10.4307 2.61743C10.4307 1.94863 9.8798 1.40649 9.20021 1.40649H3.66151C1.64255 1.40649 0 3.03169 0 5.0295V45.4849C0 47.4827 1.64255 49.1079 3.66151 49.1079H41.7903C41.7617 49.4216 41.7464 49.739 41.7464 50.0599C41.7464 55.8684 46.5134 60.5939 52.3731 60.5939C58.2327 60.5939 63 55.8683 63 50.0598C63 45.7543 60.3786 42.0447 56.6347 40.4141ZM3.66151 46.6859C3.01071 46.6859 2.46094 46.1359 2.46094 45.4847V15.3316H54.1737V39.6811C53.5883 39.5817 52.9868 39.5292 52.3732 39.5292C47.7038 39.5292 43.7282 42.529 42.3057 46.6859H3.66151ZM52.3732 58.1719C47.8705 58.1719 44.2074 54.5327 44.2074 50.0598C44.2074 45.5886 47.8706 41.9511 52.3732 41.9511C56.876 41.9511 60.5391 45.5886 60.5391 50.0598C60.5391 54.5327 56.8758 58.1719 52.3732 58.1719Z" fill="#4171F8"/>
<path d="M44.0537 8.3689C44.0537 7.7001 43.5027 7.15796 42.8233 7.15796H42.8198C42.1403 7.15796 41.5911 7.7001 41.5911 8.3689C41.5911 9.0377 42.1438 9.57983 42.8234 9.57983C43.503 9.57983 44.0537 9.0377 44.0537 8.3689Z" fill="#4171F8"/>
<path d="M49.9972 8.3689C49.9972 7.7001 49.4462 7.15796 48.7667 7.15796H48.7597C48.0803 7.15796 47.5327 7.7001 47.5327 8.3689C47.5327 9.0377 48.0872 9.57983 48.7666 9.57983C49.4461 9.57983 49.9972 9.0377 49.9972 8.3689Z" fill="#4171F8"/>
<path d="M38.1142 8.3689C38.1142 7.7001 37.5632 7.15796 36.8837 7.15796H36.8767C36.1972 7.15796 35.6497 7.7001 35.6497 8.3689C35.6497 9.0377 36.2041 9.57983 36.8836 9.57983C37.563 9.57983 38.1142 9.0377 38.1142 8.3689Z" fill="#4171F8"/>
<path d="M6.63745 8.3689C6.63745 9.0377 7.18833 9.57983 7.86792 9.57983H24.4108C25.0904 9.57983 25.6413 9.0377 25.6413 8.3689C25.6413 7.7001 25.0904 7.15796 24.4108 7.15796H7.86792C7.18833 7.15796 6.63745 7.7001 6.63745 8.3689Z" fill="#4171F8"/>
<path d="M46.673 37.5079C46.673 32.6493 44.7662 28.0819 41.3041 24.6467C41.3025 24.6451 41.3009 24.6435 41.2991 24.642C41.2986 24.6415 41.2983 24.6409 41.2978 24.6405C41.2972 24.6399 41.2966 24.6394 41.2959 24.6388C37.8387 21.2127 33.2473 19.3228 28.3613 19.3133C28.3523 19.3131 28.3435 19.312 28.3344 19.312C28.3278 19.312 28.3214 19.3129 28.3149 19.313C23.4186 19.3155 18.8168 21.2069 15.3557 24.6387C15.3553 24.639 15.355 24.6393 15.3545 24.6398C15.3541 24.6401 15.3538 24.6404 15.3536 24.6407C15.3518 24.6426 15.3498 24.6444 15.3479 24.6463C11.8832 28.0804 9.9751 32.6482 9.9751 37.508C9.9751 38.1768 10.526 38.719 11.2056 38.719H45.4425C46.1221 38.7189 46.673 38.1767 46.673 37.5079ZM24.4416 36.297C24.485 35.9105 24.5878 35.5302 24.7485 35.1678C25.1673 34.2137 25.9358 33.4807 26.912 33.1041C27.879 32.731 28.9348 32.7527 29.8852 33.1653C31.189 33.7315 32.0556 34.9419 32.2084 36.297H24.4416ZM34.6774 36.297C34.5446 34.3921 33.5401 32.636 31.9498 31.5438L33.5023 28.0233C33.7727 27.4098 33.4868 26.6965 32.8634 26.4304C32.2398 26.1641 31.5152 26.4456 31.2447 27.0591L29.6982 30.5663C28.478 30.2965 27.2046 30.3897 26.0136 30.8493C24.4222 31.4635 23.1706 32.6559 22.4913 34.2031C22.1953 34.8709 22.0214 35.5785 21.9722 36.297H12.4821C12.7368 32.9437 14.0481 29.8018 16.2548 27.2522L17.3044 28.2937C17.5449 28.5323 17.8614 28.6518 18.178 28.6518C18.4912 28.6518 18.8046 28.5349 19.0445 28.3007C19.527 27.8297 19.5302 27.063 19.0515 26.5882L17.9864 25.5315C20.556 23.3374 23.7241 22.0342 27.1041 21.7809V23.2709C27.1041 23.9397 27.655 24.4819 28.3346 24.4819C29.0141 24.4819 29.565 23.9397 29.565 23.2709V21.7826C32.9374 22.0395 36.0986 23.3414 38.6642 25.531L37.5975 26.5876C37.1185 27.0619 37.1211 27.8287 37.6031 28.3001C37.8431 28.5348 38.1568 28.6521 38.4704 28.6521C38.7865 28.6521 39.1028 28.5329 39.3433 28.2946L40.396 27.252C42.6012 29.802 43.9118 32.9441 44.1664 36.2972H34.6774V36.297Z" fill="#4171F8"/>
<path d="M56.7867 46.3215C56.264 45.8943 55.4882 45.9652 55.0541 46.4795L51.1113 51.1514L49.5417 49.8313C49.0248 49.3967 48.2484 49.4568 47.8068 49.9651C47.3653 50.4735 47.4262 51.238 47.9428 51.6724L50.461 53.7904C50.6847 53.9786 50.9685 54.0808 51.2605 54.0808C51.2953 54.0808 51.3302 54.0793 51.3653 54.0764C51.6935 54.0488 51.9967 53.8928 52.2071 53.6435L56.9471 48.0268C57.3814 47.5123 57.3096 46.7489 56.7867 46.3215Z" fill="#4171F8"/>
<path d="M14.7248 3.82837C15.4044 3.82837 15.9552 3.28623 15.9552 2.61743C15.9552 1.94863 15.4044 1.40649 14.7248 1.40649H14.7178C14.0382 1.40649 13.4907 1.94863 13.4907 2.61743C13.4907 3.28623 14.0452 3.82837 14.7248 3.82837Z" fill="#4171F8"/>
</g>
<defs>
<clipPath id="clip0">
<rect width="63" height="62" fill="white"/>
</clipPath>
</defs>
</svg>
