<svg width="30" height="30" viewBox="0 0 30 30" fill="none" xmlns="http://www.w3.org/2000/svg">
<path d="M15.014 25.2038L9.75403 19.6433L11.4567 18.0327L15.0094 21.7884L18.541 18.035L20.248 19.641L15.014 25.2038ZM24.7266 22.9688V7.03125C24.7266 3.15422 21.5723 0 17.6953 0H12.3047C8.42766 0 5.27344 3.15422 5.27344 7.03125V22.9688C5.27344 26.8458 8.42766 30 12.3047 30H17.6953C21.5723 30 24.7266 26.8458 24.7266 22.9688ZM17.6953 2.34375C20.2801 2.34375 22.3828 4.44649 22.3828 7.03125V22.9688C22.3828 25.5535 20.2801 27.6562 17.6953 27.6562H12.3047C9.71992 27.6562 7.61719 25.5535 7.61719 22.9688V7.03125C7.61719 4.44649 9.71992 2.34375 12.3047 2.34375H17.6953ZM15 4.74609C14.3527 4.74609 13.8281 5.27069 13.8281 5.91797C13.8281 6.56525 14.3527 7.08984 15 7.08984C15.6473 7.08984 16.1719 6.56525 16.1719 5.91797C16.1719 5.27069 15.6473 4.74609 15 4.74609ZM15 9.43359C14.3527 9.43359 13.8281 9.95819 13.8281 10.6055C13.8281 11.2527 14.3527 11.7773 15 11.7773C15.6473 11.7773 16.1719 11.2527 16.1719 10.6055C16.1719 9.95819 15.6473 9.43359 15 9.43359ZM15 14.1211C14.3527 14.1211 13.8281 14.6457 13.8281 15.293C13.8281 15.9402 14.3527 16.4648 15 16.4648C15.6473 16.4648 16.1719 15.9402 16.1719 15.293C16.1719 14.6457 15.6473 14.1211 15 14.1211Z" fill="white"/>
</svg>
